<svg xmlns="http://www.w3.org/2000/svg" viewBox="0 0 760 780"><rect width="760" height="780" fill="#0a0a0a"/><g fill="none" stroke="#fb4201" stroke-width="2"><path d="M120 690C245 556 217 386 362 88"/><path d="M176 720C322 566 276 370 407 60"/><path d="M236 742C386 565 337 344 454 40"/><path d="M302 754C443 560 403 335 506 64"/><path d="M370 750C505 552 477 350 558 115"/></g><g fill="none" stroke="#3a3a3a"><circle cx="380" cy="390" r="296"/><circle cx="380" cy="390" r="210"/><circle cx="380" cy="390" r="118"/></g><path d="M102 114h188M470 678h188" stroke="#f2f0eb" stroke-width="6"/><circle cx="380" cy="390" r="14" fill="#fb4201"/></svg>
